<?xml version="1.0" encoding="UTF-8" standalone="no"?>
<!DOCTYPE svg PUBLIC "-//W3C//DTD SVG 1.1//EN" "http://www.w3.org/Graphics/SVG/1.1/DTD/svg11.dtd">
<svg width="100%" height="100%" viewBox="0 0 74 91" version="1.1" xmlns="http://www.w3.org/2000/svg" xmlns:xlink="http://www.w3.org/1999/xlink" xml:space="preserve" xmlns:serif="http://www.serif.com/" style="fill-rule:evenodd;clip-rule:evenodd;stroke-miterlimit:2;">
    <g transform="matrix(1,0,0,1,-920.045,-380.812)">
        <g transform="matrix(3.69527,0,0,3.5848,897.873,369.409)">
            <path d="M26,14C26,18.634 24.293,22.395 20.925,25.178C19.459,26.385 17.792,27.7 16,28.328C14.232,27.711 12.585,26.412 11.135,25.226C7.728,22.439 6,18.663 6,14L6,7.183C6,7.183 6.292,7.164 6.73,7.135C9.358,6.961 11.892,6.064 14.068,4.537C15.113,3.803 16,3.181 16,3.181C16,3.181 16.668,3.677 17.515,4.305C19.772,5.981 22.445,6.962 25.222,7.135C25.689,7.164 26,7.183 26,7.183L26,14Z" style="fill:rgb(255,29,79);fill-rule:nonzero;"/>
        </g>
        <g transform="matrix(2.9139,0,0,2.82679,910.375,381.351)">
            <path d="M26,14C26,18.634 24.293,22.395 20.925,25.178C19.459,26.385 17.792,27.7 16,28.328C14.232,27.711 12.585,26.412 11.135,25.226C7.728,22.439 6,18.663 6,14L6,7.183C6,7.183 6,7.183 6,7.183C9.106,6.978 12.101,5.918 14.673,4.112C15.434,3.578 16,3.181 16,3.181C16,3.181 16.358,3.447 16.882,3.835C19.553,5.818 22.715,6.979 26,7.183C26,7.183 26,7.183 26,7.183L26,14Z" style="fill:#414141;fill-rule:nonzero;"/>
        </g>
        <g transform="matrix(2.9139,0,0,2.82679,910.375,381.351)">
            <path d="M26,14C26,18.634 24.293,22.395 20.925,25.178C19.459,26.385 17.792,27.7 16,28.328C14.232,27.711 12.585,26.412 11.135,25.226C7.728,22.439 6,18.663 6,14L6,7.183C6,7.183 6,7.183 6,7.183C9.106,6.978 12.101,5.918 14.673,4.112C15.434,3.578 16,3.181 16,3.181C16,3.181 16.358,3.447 16.882,3.835C19.553,5.818 22.715,6.979 26,7.183C26,7.183 26,7.183 26,7.183L26,14Z" style="fill:none;fill-rule:nonzero;stroke:#FFFFFF;stroke-width:0px;"/>
        </g>
        <g transform="matrix(4.83124,0,0,4.83124,-1863.23,-1685.49)">
            <path d="M583.665,441.036L585.054,432.567L586.708,432.567L585.319,441.036L583.665,441.036ZM579.91,439.101L580.191,437.446L587.006,437.446L586.725,439.101L579.91,439.101ZM580.687,441.036L582.077,432.567L583.731,432.567L582.341,441.036L580.687,441.036ZM580.389,436.156L580.671,434.502L587.486,434.502L587.204,436.156L580.389,436.156Z" style="stroke-width:0px; fill:none;fill:rgb(255,30,79);fill-rule:nonzero;"/>
        </g>
        <g transform="matrix(1,0,0,1,146.165,36.6254)">
           <!-- <path d="M809.216,377.076L815.609,377.076L817.143,367.726L825.135,367.726L823.601,377.076L828.891,377.076L827.532,385.067L822.29,385.067L821.267,391.301L826.573,391.301L825.215,399.292L819.956,399.292L818.422,408.642L810.43,408.642L811.964,399.292L805.571,399.292L804.037,408.642L796.046,408.642L797.58,399.292L792.29,399.292L793.648,391.301L798.891,391.301L799.913,385.067L794.607,385.067L795.966,377.076L801.224,377.076L802.758,367.726L810.75,367.726L809.216,377.076ZM808.229,376.914L808.038,378.076L816.458,378.076L817.992,368.726C817.992,368.726 823.957,368.726 823.957,368.726C823.957,368.726 822.423,378.076 822.423,378.076L827.706,378.076C827.706,378.076 826.688,384.067 826.688,384.067C826.688,384.067 821.44,384.067 821.44,384.067L820.089,392.301L825.389,392.301C825.389,392.301 824.37,398.292 824.37,398.292C824.37,398.292 819.106,398.292 819.106,398.292L817.572,407.642C817.572,407.642 811.608,407.642 811.608,407.642C811.608,407.642 813.142,398.292 813.142,398.292L804.722,398.292L803.188,407.642C803.188,407.642 797.223,407.642 797.223,407.642C797.223,407.642 798.757,398.292 798.757,398.292L793.474,398.292C793.474,398.292 794.492,392.301 794.492,392.301C794.492,392.301 799.74,392.301 799.74,392.301L801.091,384.067L795.791,384.067C795.791,384.067 796.81,378.076 796.81,378.076C796.81,378.076 802.074,378.076 802.074,378.076L803.608,368.726C803.608,368.726 809.572,368.726 809.572,368.726C809.572,368.726 808.229,376.914 808.229,376.914ZM815.475,384.067L807.056,384.067L805.705,392.301L814.125,392.301L815.475,384.067ZM807.905,385.067L806.882,391.301L813.275,391.301L814.298,385.067L807.905,385.067Z" style="fill:#414141;"/> -->
        </g>
    </g>
</svg>